HIERARCHY
ROOT Hips
{
	OFFSET 0.000000 0.000000 0.000000 
	CHANNELS 6 Xposition Yposition Zposition Zrotation Yrotation Xrotation
	JOINT LeftUpLeg
	{
		OFFSET 1.363060 -1.794630 0.839290 
		CHANNELS 3 Zrotation Yrotation Xrotation
		JOINT LeftLeg
		{
			OFFSET 2.448110 -6.726130 0.000000 
			CHANNELS 3 Zrotation Yrotation Xrotation
			JOINT LeftFoot
			{
				OFFSET 2.562200 -7.039590 0.000000 
				CHANNELS 3 Zrotation Yrotation Xrotation
				JOINT LeftToeBase
				{
					OFFSET 0.157640 -0.433110 2.322550 
					CHANNELS 3 Zrotation Yrotation Xrotation
					End Site
					{
						OFFSET 0.000000 0.000000 0.000000 
					}
				}
			}
		}
	}
	JOINT RightUpLeg
	{
		OFFSET -1.305520 -1.794630 0.839290 
		CHANNELS 3 Zrotation Yrotation Xrotation
		JOINT RightLeg
		{
			OFFSET -2.542530 -6.985550 0.000000 
			CHANNELS 3 Zrotation Yrotation Xrotation
			JOINT RightFoot
			{
				OFFSET -2.568260 -7.056230 0.000000 
				CHANNELS 3 Zrotation Yrotation Xrotation
				JOINT RightToeBase
				{
					OFFSET -0.164730 -0.452590 2.363150 
					CHANNELS 3 Zrotation Yrotation Xrotation
					End Site
					{
						OFFSET 0.000000 0.000000 0.000000 
					}
				}
			}
		}
	}
	JOINT Spine
	{
		OFFSET 0.028270 2.035590 -0.193380 
		CHANNELS 3 Zrotation Yrotation Xrotation
		JOINT Spine1
		{
			OFFSET 0.056720 2.048850 -0.042750 
			CHANNELS 3 Zrotation Yrotation Xrotation
			JOINT Neck1
			{
				OFFSET -0.054170 1.746240 0.172020 
				CHANNELS 3 Zrotation Yrotation Xrotation
				JOINT Head
				{
					OFFSET 0.104070 1.761360 -0.123970 
					CHANNELS 3 Zrotation Yrotation Xrotation
					End Site
					{
						OFFSET 0.000000 0.000000 0.000000 
					}
				}
			}
			JOINT LeftArm
			{
				OFFSET 3.362410 1.200890 -0.311210 
				CHANNELS 3 Zrotation Yrotation Xrotation
				JOINT LeftForeArm
				{
					OFFSET 4.983000 -0.000000 -0.000000 
					CHANNELS 3 Zrotation Yrotation Xrotation
					JOINT LeftHand
					{
						OFFSET 3.483560 -0.000000 -0.000000 
						CHANNELS 3 Zrotation Yrotation Xrotation
						JOINT LeftHandIndex1
						{
							OFFSET 0.715260 -0.000000 -0.000000 
							CHANNELS 3 Zrotation Yrotation Xrotation
							End Site
							{
								OFFSET 0.000000 0.000000 0.000000 
							}
						}
					}
				}
			}
			JOINT RightArm
			{
				OFFSET -3.136600 1.374050 -0.404650 
				CHANNELS 3 Zrotation Yrotation Xrotation
				JOINT RightForeArm
				{
					OFFSET -5.241900 -0.000000 -0.000000 
					CHANNELS 3 Zrotation Yrotation Xrotation
					JOINT RightHand
					{
						OFFSET -3.444170 -0.000000 -0.000000 
						CHANNELS 3 Zrotation Yrotation Xrotation
						JOINT RightHandIndex1
						{
							OFFSET -0.622530 -0.000000 -0.000000 
							CHANNELS 3 Zrotation Yrotation Xrotation
							End Site
							{
								OFFSET 0.000000 0.000000 0.000000 
							}
						}
					}
				}
			}
		}
	}
}
MOTION
Frames: 15
Frame Time: 0.041667
11.619312 15.427829 -5.988382 -91.977009 -86.926468 112.997880 -17.081667 15.353857 -88.203131 8.416430 13.374147 44.077560 -1.635823 20.499528 36.023436 2.535000 -9.901200 -28.657400 -8.408578 -35.751278 -21.876426 -11.084762 -16.509785 60.836744 -3.425076 9.169047 18.219548 -0.946700 6.196500 -17.355700 -0.362179 5.607805 1.768980 -2.994260 3.519345 11.561911 -11.872536 5.480674 -14.092989 -4.366500 3.112100 -5.298300 -12.335446 42.008646 49.114462 1.779609 -13.558796 -1.621175 -3.016863 -4.001607 -45.986497 -7.125000 0.000000 0.000000 51.896845 -65.911860 80.794004 -19.128694 36.981719 -7.052007 1.549401 2.369897 0.307008 7.125000 0.000000 0.000000 
11.248706 15.302268 -5.970145 -63.191142 -85.646046 82.874259 -20.128366 15.509666 -89.454223 8.375381 13.574065 43.931299 -1.583603 21.199152 36.756542 2.399300 -9.652500 -27.858700 -9.685998 -34.745622 -15.901613 -10.872339 -16.684364 60.323509 -3.135302 7.522587 17.752599 -0.970400 6.271500 -17.574200 -0.244283 6.299314 1.591311 -2.641056 3.867378 10.957440 -11.496025 4.897003 -14.179680 -4.202000 2.832100 -5.384200 -12.981671 43.037672 47.392635 1.603791 -13.309705 -1.553284 -3.005451 -3.862651 -45.120178 -7.125000 0.000000 0.000000 54.494386 -66.799540 76.815213 -17.477180 35.517720 -6.314846 1.529517 2.467805 -0.220230 7.125000 0.000000 0.000000 
10.875226 15.165432 -5.958650 -50.956242 -83.560530 69.182612 -22.661874 15.705131 -90.138008 8.425493 13.833182 44.380622 -1.316908 21.076303 37.447240 1.956800 -8.775500 -25.095500 -10.531367 -33.389468 -9.759296 -10.564542 -16.865481 59.578739 -2.793793 5.836339 16.911829 -0.992100 6.339100 -17.771600 -0.131837 6.922193 1.395504 -2.215946 4.181281 10.244673 -10.972928 4.304980 -14.249270 -3.954000 2.554300 -5.467900 -13.790534 44.056375 44.996218 1.366749 -12.931662 -1.461130 -2.997691 -3.706617 -43.944968 -7.125000 0.000000 0.000000 57.008137 -67.380402 72.784524 -15.883239 33.924386 -5.604924 1.528855 2.535082 -0.622478 7.125000 0.000000 0.000000 
10.498763 15.021412 -5.953676 -45.036875 -81.239641 61.726435 -24.400289 15.933527 -90.187385 8.474909 14.102938 45.427343 -0.689151 19.297260 37.992715 1.529300 -7.807900 -22.132100 -10.755274 -31.742251 -3.652377 -10.177310 -17.046209 58.631353 -2.375914 4.016352 15.762663 -0.976800 6.291600 -17.633000 -0.058996 7.471623 1.175728 -1.809340 4.453497 9.467424 -10.316494 3.670243 -14.333444 -3.646000 2.258700 -5.566200 -14.552455 44.975315 42.298993 1.110660 -12.463892 -1.361193 -2.989777 -3.561582 -42.762270 -7.125000 0.000000 0.000000 59.575564 -67.665211 68.712009 -14.389460 32.270153 -4.940912 1.548107 2.557561 -0.797233 7.125000 0.000000 0.000000 
10.119204 14.876839 -5.953123 -41.783811 -78.875218 56.919094 -25.242050 16.167138 -89.655675 8.489918 14.374793 47.029005 0.129942 15.884447 37.859622 1.047100 -6.507300 -18.263800 -10.247621 -29.899618 2.237296 -9.740976 -17.205386 57.534824 -1.846351 1.936932 14.371911 -0.884200 5.994200 -16.767500 0.026835 7.873238 0.972280 -1.293362 4.627771 8.819124 -9.536121 3.056575 -14.421794 -3.263900 1.972700 -5.631300 -15.630952 45.846027 38.982054 0.831129 -11.923321 -1.249855 -2.965849 -3.430172 -41.622639 -7.125000 0.000000 0.000000 61.504735 -67.203394 65.072184 -12.946828 30.604458 -4.327749 1.574170 2.544131 -0.695442 7.125000 0.000000 0.000000 
9.737877 14.737130 -5.952571 -39.704570 -76.499784 53.312568 -25.271212 16.302184 -88.666970 8.513165 14.669203 49.128214 0.883514 11.473591 36.370192 0.604500 -4.977000 -13.842900 -9.006035 -28.035242 7.745278 -9.300495 -17.343529 56.397598 -1.184090 -0.455680 12.839889 -0.664700 5.213900 -14.519700 0.043722 8.217366 0.753105 -0.888087 4.786044 8.216204 -8.719897 2.373413 -14.520392 -2.883700 1.644400 -5.681900 -16.557140 46.446599 35.569340 0.564310 -11.341937 -1.142114 -2.937748 -3.347451 -40.779369 -7.125000 0.000000 0.000000 63.700819 -66.451509 61.128313 -11.584851 28.917047 -3.771061 1.617757 2.483594 -0.306960 7.125000 0.000000 0.000000 
9.355445 14.608031 -5.948149 -38.339540 -74.083531 50.469152 -24.548274 16.218413 -87.419727 8.714606 15.036462 51.627376 1.356882 7.457454 33.351085 0.261800 -3.291500 -9.091500 -7.021169 -26.285769 12.714889 -8.912239 -17.485938 55.396872 -0.396740 -3.083842 11.122668 -0.388100 4.000600 -11.078400 0.033616 8.446797 0.535298 -0.548489 4.888373 7.714556 -7.939276 1.654286 -14.728742 -2.535900 1.293000 -5.750200 -17.569066 46.797861 31.732810 0.309626 -10.727603 -1.033475 -2.905554 -3.300198 -40.130005 -7.125000 0.000000 0.000000 65.830737 -65.176693 57.025637 -10.260807 27.208400 -3.271961 1.675156 2.393608 0.273524 7.125000 0.000000 0.000000 
8.978649 14.486338 -5.937649 -37.339143 -71.592179 48.078276 -23.154522 15.701173 -86.107852 9.246303 15.507702 54.429396 1.392063 5.124508 29.204296 0.073900 -1.753500 -4.825000 -4.416348 -24.803925 16.943843 -8.654366 -17.676253 54.794861 0.462025 -5.754408 9.236032 -0.143000 2.437000 -6.714900 -0.021509 8.570497 0.299579 -0.367736 4.947245 7.245840 -7.177658 0.900298 -15.073471 -2.206800 0.924000 -5.853200 -18.542465 46.831542 27.818835 0.106600 -10.157029 -0.938230 -2.865451 -3.297239 -39.840265 -7.125000 0.000000 0.000000 68.068302 -63.448100 52.546974 -8.985394 25.492400 -2.842440 1.738184 2.282846 0.989466 7.125000 0.000000 0.000000 
8.614123 14.371940 -5.923059 -36.459862 -69.100337 45.953112 -21.296442 14.671272 -84.934804 10.099639 16.053681 57.423592 0.918840 4.897341 24.745483 0.007000 -0.541600 -1.488300 -1.454053 -23.647624 20.196141 -8.611986 -17.961934 54.882287 1.300741 -8.199526 7.204033 -0.016200 0.821700 -2.258300 -0.141682 8.617665 0.036351 -0.374798 4.973585 6.751573 -6.454577 0.098109 -15.663937 -1.905200 0.537900 -6.056400 -19.442671 46.524344 24.116989 -0.022276 -9.703524 -0.866542 -2.816784 -3.331741 -39.957047 -7.125000 0.000000 0.000000 70.390277 -61.258528 47.673624 -7.755300 23.786281 -2.485497 1.823370 2.149886 1.853900 7.125000 0.000000 0.000000 
8.266397 14.266716 -5.907917 -35.353296 -66.720417 43.803582 -19.273008 13.156367 -84.016328 11.125322 16.615595 60.472335 0.042440 6.215833 20.701040 0.000000 0.023000 0.063300 1.494658 -22.847861 22.306293 -8.862995 -18.380800 55.908343 2.019820 -10.172040 5.097893 -0.015200 -0.795700 2.186700 -0.355350 8.608543 -0.250743 -0.555365 4.969449 6.196488 -5.774028 -0.762213 -16.568969 -1.635100 0.132300 -6.410000 -20.247986 45.822273 20.723793 -0.104504 -9.349308 -0.812106 -2.773099 -3.376958 -40.278239 -7.125000 0.000000 0.000000 72.784764 -58.565171 42.369695 -6.550231 22.085865 -2.197665 1.936123 1.990162 2.913076 7.125000 0.000000 0.000000 
7.938234 14.172655 -5.896421 -33.982318 -64.594686 41.605345 -17.319502 11.340751 -83.339631 12.166067 17.141335 63.425049 -0.974973 8.133634 17.414763 0.006300 0.514200 1.413100 4.108378 -22.296171 23.212469 -9.451994 -18.934630 57.992942 2.524349 -11.445232 3.002968 -0.114100 -2.177800 5.997300 -0.655680 8.564635 -0.539207 -0.815008 4.932454 5.601026 -5.111834 -1.635085 -17.776141 -1.377500 -0.270900 -6.915300 -21.086116 44.727504 17.528405 -0.187163 -9.038583 -0.762786 -2.742576 -3.400950 -40.415290 -7.125000 0.000000 0.000000 74.925027 -55.279561 36.830157 -5.324643 20.372022 -1.963956 2.065311 1.806701 4.291136 7.125000 0.000000 0.000000 
7.630410 14.095727 -5.887358 -32.479107 -62.846513 39.526458 -15.599552 9.469142 -82.846441 13.101995 17.592402 66.132271 -1.822884 9.744978 14.804853 0.006700 0.526600 1.447100 6.200975 -21.795107 22.867739 -10.389815 -19.582744 61.105287 2.778565 -11.973682 1.070156 -0.248600 -3.208100 8.858500 -1.070237 8.572078 -0.832529 -1.185900 4.909653 4.994775 -4.467570 -2.522392 -19.131438 -1.136300 -0.682000 -7.513100 -21.823101 43.173154 14.867977 -0.296122 -8.745105 -0.715262 -2.758746 -3.377883 -40.115542 -7.125000 0.000000 0.000000 76.878816 -51.423780 30.930603 -4.044786 18.593285 -1.770234 2.199445 1.580443 6.274191 7.125000 0.000000 0.000000 
7.341485 14.042009 -5.873763 -31.015171 -61.585820 37.644264 -14.196735 7.835965 -82.354981 13.888494 17.958329 68.495070 -2.381780 10.745768 12.770662 0.001000 0.202200 0.555500 7.647923 -21.143954 21.485881 -11.631512 -20.242142 65.042637 2.765303 -11.728839 -0.611346 -0.370100 -3.907500 10.816600 -1.494344 8.534422 -1.073461 -1.482663 4.840623 4.509719 -3.777466 -3.256812 -20.453377 -0.847300 -1.014000 -8.093200 -23.048852 41.418058 12.244218 -0.469010 -8.422184 -0.654181 -2.803468 -3.279487 -39.075876 -7.125000 0.000000 0.000000 77.766106 -46.911320 25.250954 -2.677158 16.705927 -1.590743 2.326171 1.352963 8.989314 7.125000 0.000000 0.000000 
7.073009 14.014045 -5.849778 -29.752738 -60.865809 35.999413 -13.140087 6.627647 -81.666052 14.516173 18.237463 70.470098 -2.677289 11.154077 11.030512 0.002800 -0.339100 -0.931700 8.428096 -20.185334 19.287277 -13.105456 -20.827338 69.539864 2.519314 -10.822177 -1.930411 -0.525100 -4.643900 12.895700 -1.992901 8.615148 -1.289167 -1.909968 4.825577 4.104074 -3.187242 -3.930224 -21.616018 -0.617200 -1.330900 -8.627400 -24.294190 39.271102 10.449977 -0.691338 -8.102607 -0.593187 -2.895639 -3.128397 -37.592562 -7.125000 0.000000 0.000000 78.279304 -41.926942 19.139636 -1.275408 14.685393 -1.438517 2.445833 1.083149 12.667329 7.125000 0.000000 0.000000 
6.826417 14.012719 -5.808108 -28.734309 -60.685124 34.519722 -12.398442 5.892974 -80.674701 15.011500 18.445634 72.077531 -2.826288 11.249102 9.476035 0.016500 -0.830300 -2.282000 8.560658 -18.881570 16.509532 -14.710491 -21.268666 74.292380 2.110841 -9.447016 -2.947320 -0.704600 -5.365100 14.953000 -2.493248 8.757686 -1.459783 -2.392289 4.832988 3.814406 -2.668294 -4.432326 -22.426572 -0.419200 -1.578800 -8.996500 -25.906126 36.851847 9.045257 -0.947080 -7.782138 -0.531127 -3.021740 -2.907421 -35.654161 -7.125000 0.000000 0.000000 78.076107 -36.514203 12.871198 0.084686 12.556815 -1.309199 2.554815 0.789525 17.178415 7.125000 0.000000 0.000000 
